<svg id="Calque_1" data-name="Calque 1" xmlns="http://www.w3.org/2000/svg" viewBox="0 0 613.3 600.26"><defs><style>.cls-1{fill:#d2bbd8;}.cls-1,.cls-2,.cls-3,.cls-4,.cls-5,.cls-6,.cls-7,.cls-8{stroke:#000;}.cls-1,.cls-5,.cls-6{stroke-miterlimit:10;}.cls-2{fill:#9773ab;}.cls-2,.cls-3,.cls-4,.cls-7,.cls-8{stroke-linecap:round;stroke-linejoin:round;}.cls-4,.cls-6{fill:#fff;}.cls-6{opacity:0.59;}.cls-7{fill:none;}.cls-8{fill:#7c3889;}.cls-9{fill:#aa89ba;}</style></defs><title>AKOOOO</title><path class="cls-1" d="M564,727.58a0,0,0,0,0,0,0" transform="translate(-120.2 -127.68)"/><path class="cls-1" d="M380,458.62" transform="translate(-120.2 -127.68)"/><path class="cls-1" d="M301.22,505.45c-5.23,4.13-13.17,7.7-20.86.6-9.87-9.13-2-18.85,2.44-23C289.5,490.5,295.52,498.36,301.22,505.45Z" transform="translate(-120.2 -127.68)"/><path class="cls-1" d="M256.58,460.74c-4.39,11.07-12.39,11.95-25.78,9.3-10.09-2-8.33-11.6-6.09-17.68A60.87,60.87,0,0,1,256.58,460.74Z" transform="translate(-120.2 -127.68)"/><path class="cls-1" d="M187.39,483.26c-8.46,10.42-23.14,12.51-30.11,5.32A76.2,76.2,0,0,1,182.1,465C187.74,468.67,194,475.13,187.39,483.26Z" transform="translate(-120.2 -127.68)"/><path class="cls-1" d="M157.17,523.87c-1.06,9.68-9.63,11.51-15.47,11.61a117.73,117.73,0,0,1,5.06-24.88C151.78,511.58,158.21,514.63,157.17,523.87Z" transform="translate(-120.2 -127.68)"/><path class="cls-1" d="M321.45,598.7c-7.2,4.76-11.18-3-12.81-7.63,7.5-3.3,14.55-6.93,20.69-10.33C332.46,587.85,330.49,592.76,321.45,598.7Z" transform="translate(-120.2 -127.68)"/><path class="cls-1" d="M275.26,618.72c-13.84,1.55-18.71-6.25-20.37-12.93,6.25-1.58,12.87-3,19.91-4.08,3.16-.51,6.36-1.19,9.56-2C288.06,606.2,291.4,616.9,275.26,618.72Z" transform="translate(-120.2 -127.68)"/><path class="cls-1" d="M229.69,628.92c-8.55,7.35-18.34,9.34-26.36-.66a142.58,142.58,0,0,1,25.07-13.63C232.09,618.11,235.79,623.69,229.69,628.92Z" transform="translate(-120.2 -127.68)"/><path class="cls-1" d="M181.37,679.64c-6.41,10.19-15.45,9.68-21.38,3.64a113.4,113.4,0,0,1,12.28-24C178.18,662.91,187.17,670.38,181.37,679.64Z" transform="translate(-120.2 -127.68)"/><path class="cls-1" d="M370.49,684.09c.21,10-5.69,13.9-10.73,15.44a106.05,106.05,0,0,1-2.43-32.82C362.5,668.28,370.25,672.56,370.49,684.09Z" transform="translate(-120.2 -127.68)"/><path class="cls-1" d="M386.73,623.86c-6.15,10.91-14.52,9.69-20.11,7.08a192.25,192.25,0,0,1,15.73-28.75C387.53,606.2,392.67,613.28,386.73,623.86Z" transform="translate(-120.2 -127.68)"/><path class="cls-1" d="M411.89,579.48c-6.75,9-13.27,8.08-17.66,5.62,3.59-4.92,7.28-9.81,11-14.71q4-5.25,7.41-10.7C416.06,564.25,418.22,571.08,411.89,579.48Z" transform="translate(-120.2 -127.68)"/><path class="cls-1" d="M470,593.84c-6.08,5.29-14.92,9.37-23.05-.56-7.88-9.65-5.65-16.94-2.13-21.5C452,579.69,460.72,587,470,593.84Z" transform="translate(-120.2 -127.68)"/><path class="cls-1" d="M509,620.32c-3,6.4-9.05,14.21-19.69,6.71-10.29-7.24-6.88-16.12-2.9-21.71C494.11,610.5,501.82,615.47,509,620.32Z" transform="translate(-120.2 -127.68)"/><path class="cls-1" d="M553,668.11c-4.15,2.39-10.09,3.6-16-2.85-6.88-7.45-1.57-13.11,3.23-16.25A139.21,139.21,0,0,1,553,668.11Z" transform="translate(-120.2 -127.68)"/><path class="cls-1" d="M566,709.21c-4.23,1.95-10.13,2.61-12.2-7.41-2-9.8,3.51-12.59,8.2-13.26A80.73,80.73,0,0,1,566,709.21Z" transform="translate(-120.2 -127.68)"/><path class="cls-1" d="M527.74,555.7c-8.57-1.37-7.23-8.37-5.09-13.34a105.49,105.49,0,0,0,21.09,1.39C547.94,552.31,539.55,557.59,527.74,555.7Z" transform="translate(-120.2 -127.68)"/><path class="cls-1" d="M576.29,556.41c-14.16,4.06-14.8-6.29-13.46-14.19,8-1,16.16-2.41,24.35-4C592.63,545.85,593.55,551.48,576.29,556.41Z" transform="translate(-120.2 -127.68)"/><path class="cls-1" d="M631.72,545.41c-10.21.47-11.3-7.88-10.82-13.65,7.09-1.28,14-2.37,20.61-3.09C645,535.39,644.49,544.8,631.72,545.41Z" transform="translate(-120.2 -127.68)"/><path class="cls-1" d="M702.9,553.56c-6.24,4-15.46,7.46-23.18,0-8.81-8.56-3.43-16.48,1-20.67A50.19,50.19,0,0,1,702.9,553.56Z" transform="translate(-120.2 -127.68)"/><path class="cls-1" d="M708.87,595.9h0c-3.8-.63-7.82-2.91-8.19-9.7-.43-7.94,4.89-8.93,9.21-8.47A76.24,76.24,0,0,1,708.87,595.9Z" transform="translate(-120.2 -127.68)"/><path class="cls-1" d="M623.06,456.47c-5.88,7.79-8.75,13.46-15.69,10.06,1.73-6.52,3.4-13.82,5.17-21.58C618.82,446.36,628.18,449.7,623.06,456.47Z" transform="translate(-120.2 -127.68)"/><path class="cls-1" d="M634.54,414.64c-3.35,10.82-11.86,11.83-17.58,11.14,1.67-6.95,3.46-14,5.48-21.06C629.13,403.5,637.92,403.73,634.54,414.64Z" transform="translate(-120.2 -127.68)"/><path class="cls-1" d="M658.69,368.51c-8,13.6-21.25,14.19-28.62,13.26,4.32-11.08,9.49-21.42,15.87-30.1C654.92,352.53,666,356,658.69,368.51Z" transform="translate(-120.2 -127.68)"/><path class="cls-1" d="M701,341.25c-12.44-1.22-13.43-9.46-12.55-15.2,8.13-.74,17.17.11,27.29,2.87C715.9,334.38,714,342.53,701,341.25Z" transform="translate(-120.2 -127.68)"/><path class="cls-2" d="M392.41,471.9c-18.51,37.34-57.71,58.45-57.71,58.45-11.42,1.25-22.18-10.81-33.48-24.9-5.7-7.09-11.72-14.95-18.42-22.42-7.68-8.57-16.25-16.6-26.22-22.29a60.87,60.87,0,0,0-31.87-8.38,68.45,68.45,0,0,0-12.82,1.43A94.27,94.27,0,0,0,182.1,465a76.2,76.2,0,0,0-24.82,23.63,90.11,90.11,0,0,0-10.52,22,117.73,117.73,0,0,0-5.06,24.88c-.43,4.4-.61,8.47-.64,12a3.4,3.4,0,0,1-6.48,1.38c-14.14-30.51-37-104.42,47.21-145.67,98.74-48.36,134.54,100.26,182.86,70.82,27.35-16.66,52-29.95-34.82-161.39-43.15-65.29,17.48-192.55,118.93-184.09,64.74,5.39,163.44,58.21,112,179.11S539,472.45,539,472.45s-24.12-3-29.53-30.46c0,0,2.52,24.48,29.53,30.46,49.44,10.93,18.92-106.07,75.8-157.4,48.39-43.67,93.54-8.69,112.58,10.83a3.4,3.4,0,0,1-3.59,5.56c-2.77-1-5.46-1.81-8.09-2.52-10.12-2.76-19.16-3.61-27.29-2.87-18.46,1.65-32.08,11.47-42.5,25.62-6.38,8.68-11.55,19-15.87,30.1-2.89,7.41-5.39,15.14-7.63,23-2,7-3.81,14.11-5.48,21.06-1.58,6.57-3,13-4.42,19.17-1.77,7.76-3.44,15.06-5.17,21.58-4.42,16.77-9.19,28.37-16.61,29.29,0,0-44.78,14.75-71.71-7.35,55.72,41.65,130.22-39.3,180.66,5.27,53.93,47.68,29.83,91.35,14,110.57a3.39,3.39,0,0,1-5.9-3q.65-2.76,1.09-5.43h0a76.24,76.24,0,0,0,1-18.17,56.84,56.84,0,0,0-7-24.17,50.19,50.19,0,0,0-22.21-20.7,52.45,52.45,0,0,0-21.45-5.09,138.53,138.53,0,0,0-17.73.9c-6.62.72-13.52,1.81-20.61,3.09-11,2-22.35,4.36-33.72,6.51-8.19,1.54-16.36,3-24.35,4-6.51.81-12.9,1.37-19.09,1.53a105.49,105.49,0,0,1-21.09-1.39c-14.53-2.58-27.37-8.78-36.29-21.46,0,0-9.44-27.57-9.17-52.55,5.35,115.35,80.87,115.35,107,160,18.85,32.12,0,69.5-11.94,87.89a3.4,3.4,0,0,1-6.23-2c.05-1.64,0-3.3-.06-5a80.73,80.73,0,0,0-4-20.67,114.12,114.12,0,0,0-9-20.43A139.21,139.21,0,0,0,540.24,649a129.53,129.53,0,0,0-27.38-26c-1.28-.89-2.56-1.77-3.89-2.64-7.15-4.85-14.86-9.82-22.59-15-5.52-3.71-11-7.52-16.39-11.48-9.27-6.85-18-14.15-25.18-22.06-9.24-10.14-17.64-23.2-19.83-35.76,0,0,13.43-30.87,16.43-67.81,0,0-1.91,48.8-28.77,91.48q-3.43,5.44-7.41,10.7c-3.72,4.9-7.41,9.79-11,14.71-4.14,5.66-8.13,11.35-11.88,17.09a192.25,192.25,0,0,0-15.73,28.75,115.13,115.13,0,0,0-9.29,35.77,106.05,106.05,0,0,0,2.43,32.82q1,4.32,2.35,8.76a3.4,3.4,0,0,1-5.89,3.12c-20.64-25.67-55.71-84.65-4.6-144.4,27.77-32.47,40.21-37.21,52.71-96.44-4.21,36.85-26.66,67-26.66,67L351.62,567s-9,6.37-22.29,13.73c-6.14,3.4-13.19,7-20.69,10.33a164.84,164.84,0,0,1-24.28,8.61c-3.2.84-6.4,1.52-9.56,2-7,1.12-13.66,2.5-19.91,4.08a181.82,181.82,0,0,0-26.49,8.84,142.58,142.58,0,0,0-25.07,13.63,116.34,116.34,0,0,0-31.06,31,112.57,112.57,0,0,0-15.81,35.42,3.4,3.4,0,0,1-6.68-.6c-2.76-38,4.45-109.92,93.51-129,104.18-22.37,138.94-73.88,147.08-89" transform="translate(-120.2 -127.68)"/><path class="cls-3" d="M464.83,287.76l.08,10.69s26.23-6.94,36.38,23.06c.28.84,1.63.34,1.56-.54C502.16,311.94,497.32,286.57,464.83,287.76Z" transform="translate(-120.2 -127.68)"/><path class="cls-3" d="M432.54,287.76l-.07,10.69s-26.23-6.94-36.39,23.06c-.28.84-1.63.34-1.56-.54C395.21,311.94,400.05,286.57,432.54,287.76Z" transform="translate(-120.2 -127.68)"/><path class="cls-4" d="M480.54,318.83c-12.27-3.78-27.67,10.81-34.39,32.61-.44,1.44-.84,2.89-1.19,4.33-.35-1.44-.75-2.89-1.19-4.33-6.72-21.8-22.12-36.39-34.39-32.61s-16.77,24.53-10.05,46.33c5.28,17.1,15.9,29.77,26.15,32.59.84-.29,1.7-.56,2.59-.82h0c1.94-.57,4-1.07,6.09-1.48,1.38-.29,2.8-.54,4.25-.75.23-.05.46-.08.69-.11h0a20.16,20.16,0,0,0,4.65-6.73c.43-.93.44-3.83.78-4.87,0,0,.39,1.82.41,1.77a24,24,0,0,0,4.42,8.32c.14.19.31.37.46.54l.27,0c.72,0,1.44-.06,2.15-.07,1.85,0,3.69-.06,5.52,0,2.7.05,5.37.18,7.94.38,1.88.16,3.72.35,5.51.6,7.89-5.38,15.24-16,19.36-29.33C497.31,343.36,492.81,322.62,480.54,318.83Z" transform="translate(-120.2 -127.68)"/><path class="cls-5" d="M469,374.61c-1.86,9-6.34,16.22-11.19,18.9-1.83,0-3.67,0-5.52,0-.71,0-1.43,0-2.15.07a8.22,8.22,0,0,1-.73-.52c-2.09-1.66-3.61-4.55-4.47-8.2-.07-.32-.15-.65-.21-1s-.11-.58-.15-.89v0a32,32,0,0,1-.35-7.09v-.06a44.34,44.34,0,0,1,.81-6.16,41.2,41.2,0,0,1,1.47-5.36v0c3.31-9.45,9.52-15.67,15.13-14.53C468.22,351.12,471.52,362.24,469,374.61Z" transform="translate(-120.2 -127.68)"/><path class="cls-5" d="M444.55,383a2.72,2.72,0,0,1,0,.31,23.79,23.79,0,0,1-.75,4.59,20.16,20.16,0,0,1-4.65,6.73h0c-.23,0-.46.06-.69.11-1.45.21-2.87.46-4.25.75-5.66-1.22-11.73-8.55-14.71-18.48-3.63-12.09-1.33-23.46,5.13-25.41s14.67,6.28,18.3,18.37c0,.17.1.35.15.52a40,40,0,0,1,1.16,5.36A32.64,32.64,0,0,1,444.55,383Z" transform="translate(-120.2 -127.68)"/><ellipse class="cls-6" cx="296.66" cy="235.73" rx="6.23" ry="3.81"/><ellipse class="cls-6" cx="469.95" cy="356.94" rx="7.74" ry="4.68" transform="translate(-235.71 155.12) rotate(-30)"/><path class="cls-7" d="M491.41,401.65c-3-3.4-10.7-5.87-20.18-7.16-1.79-.25-3.63-.44-5.51-.6a124.5,124.5,0,0,0-13.46-.36c-.81,0-1.61,0-2.42.09-3.65.15-7.24.49-10.72,1h0c-.23,0-.46.06-.69.11a73.84,73.84,0,0,0-10.34,2.23h0c-.89.26-1.75.53-2.59.82-5.9,2-10.52,4.88-12.87,8.58" transform="translate(-120.2 -127.68)"/><path class="cls-7" d="M426.27,417.83a32,32,0,0,0,9.28,6.19c7.47,3.35,19,5.32,32.83-3a60.89,60.89,0,0,0,8.07-5.92" transform="translate(-120.2 -127.68)"/><path class="cls-4" d="M468.38,421c-2.25,3.53-2.08,11.69-4.4,18.24-1.66,4.72-4.61,8.59-10.67,9.3-7.25.87-10.67-3.46-12.8-9-2.08-5.3-3-11.69-5-15.51C443,427.37,454.53,429.34,468.38,421Z" transform="translate(-120.2 -127.68)"/><path class="cls-8" d="M464.12,438.27v.08c-1.66,4.71-4.62,8.58-10.67,9.3-7.26.86-10.67-3.46-12.8-9l.09-.28c2.51-3.79,7-4,11.81-1.7C457.61,433.13,463.39,431.69,464.12,438.27Z" transform="translate(-120.2 -127.68)"/><path class="cls-9" d="M480.81,186.55c44,19.65,38,77.13,55.72,77.13s55.45-56.58-6.21-93S407.75,123,413.36,166,448.16,172,480.81,186.55Z" transform="translate(-120.2 -127.68)"/><path class="cls-9" d="M334.59,530.38c-11.37,1.16-22.11-10.89-33.37-24.93-5.7-7.09-11.72-14.95-18.42-22.42-7.68-8.57-16.25-16.6-26.22-22.29a60.87,60.87,0,0,0-31.87-8.38,68.45,68.45,0,0,0-12.82,1.43A94.27,94.27,0,0,0,182.1,465a76.2,76.2,0,0,0-24.82,23.63,90.11,90.11,0,0,0-10.52,22,117.73,117.73,0,0,0-5.06,24.88c-.43,4.39-.61,8.46-.64,12a3.4,3.4,0,0,1-6.48,1.38Q133.3,546.17,132,543c.52-36.5,20.65-93.79,74.47-101.93,60.65-9.17,121.58,66.58,141.29,80.62a.8.8,0,0,1,.21.15Z" transform="translate(-120.2 -127.68)"/><path class="cls-9" d="M377.67,537.59l-3.44,3.9-10.36,11.68-.3.33L351.62,567s-9,6.37-22.29,13.73c-6.14,3.4-13.19,7-20.69,10.33a164.84,164.84,0,0,1-24.28,8.61c-3.2.84-6.4,1.52-9.56,2-7,1.12-13.66,2.5-19.91,4.08a181.82,181.82,0,0,0-26.49,8.84,142.58,142.58,0,0,0-25.07,13.63,116.34,116.34,0,0,0-31.06,31,113.4,113.4,0,0,0-12.28,24,117.27,117.27,0,0,0-3.53,11.42,3.4,3.4,0,0,1-6.68-.6c-.21-3.09-.38-6.42-.43-9.91,13.78-33.84,43.54-74.74,87.17-86,63.69-16.37,97.57-24.16,140.36-60Z" transform="translate(-120.2 -127.68)"/><path class="cls-9" d="M434.88,504.84s-.13,1-.41,2.59c0,0,0,.06,0,.1-.17,1-.4,2.25-.69,3.67-1.39,6.83-4.15,17.67-8.72,24.71l0,0s0,.06,0,.09a12.24,12.24,0,0,0-1.29,3,170.3,170.3,0,0,1-11,20.65q-3.43,5.44-7.41,10.7c-3.72,4.9-7.41,9.79-11,14.71-4.14,5.66-8.13,11.35-11.88,17.09a192.25,192.25,0,0,0-15.73,28.75,115.13,115.13,0,0,0-9.29,35.77,106.05,106.05,0,0,0,2.43,32.82c.65,2.88,1.43,5.79,2.35,8.77a3.4,3.4,0,0,1-5.89,3.11,163.81,163.81,0,0,1-9.83-13.56c-4.54-24.71-2-53.87,11.6-77,22.58-38.45,29.15-32.18,55.45-78.33C423.5,524.84,434.88,504.84,434.88,504.84Z" transform="translate(-120.2 -127.68)"/><path class="cls-9" d="M577.89,706.86c-1.92,3.48-3.84,6.62-5.61,9.33a3.39,3.39,0,0,1-6.23-2c0-1.65,0-3.29-.06-5a80.73,80.73,0,0,0-4-20.67,114.12,114.12,0,0,0-9-20.43A139.21,139.21,0,0,0,540.24,649a129.53,129.53,0,0,0-27.38-26c-1.28-.89-2.56-1.77-3.89-2.64-7.15-4.85-14.86-9.82-22.59-15-5.52-3.71-11-7.52-16.39-11.48-9.27-6.85-18-14.15-25.18-22.06-9.23-10.12-17.63-23.17-19.84-35.72,0,0,0,0,0,0v0l2-9.2a35.52,35.52,0,0,0,.13,3.89.9.9,0,0,0,0,.23c3.18,38.68,59.35,57.29,103,85.6C560.67,636.37,575,676.3,577.89,706.86Z" transform="translate(-120.2 -127.68)"/><path class="cls-9" d="M488.39,402.22c-2.84-3.7-40.63-8.46-50.47-4.36-11.56,4.82,13.25-1.38,25.71.72C474.32,400.38,493.5,408.89,488.39,402.22Z" transform="translate(-120.2 -127.68)"/><path class="cls-9" d="M721.82,592.91a97.19,97.19,0,0,1-8.15,11.4,3.4,3.4,0,0,1-5.9-3c.43-1.84.78-3.64,1.09-5.42h0a76.24,76.24,0,0,0,1-18.17,56.84,56.84,0,0,0-7-24.17,50.19,50.19,0,0,0-22.21-20.7,52.45,52.45,0,0,0-21.45-5.09,138.53,138.53,0,0,0-17.73.9c-6.62.72-13.52,1.81-20.61,3.09-11,2-22.35,4.36-33.72,6.51-8.19,1.54-16.36,3-24.35,4-6.51.81-12.9,1.37-19.09,1.53a105.49,105.49,0,0,1-21.09-1.39c-14.52-2.58-27.34-8.77-36.26-21.42.55,1.57,1.1,3.11,1.7,4.62l-.7-.63-5.22-17.51c.17.3.34.61.52.9a.7.7,0,0,0,.08.14c30.53,52.85,130.44,8.43,183.14,8.43C704,516.89,723.05,553.27,721.82,592.91Z" transform="translate(-120.2 -127.68)"/><path class="cls-2" d="M584.46,497l5.51-1.38A6.43,6.43,0,0,1,584.46,497Z" transform="translate(-120.2 -127.68)"/><path class="cls-9" d="M723.81,331.44c-2.76-1-5.46-1.8-8.08-2.52-10.12-2.76-19.16-3.61-27.29-2.87-18.46,1.65-32.08,11.47-42.5,25.62-6.38,8.68-11.55,19-15.87,30.1-2.89,7.41-5.39,15.14-7.63,23-2,7-3.81,14.11-5.48,21.06-1.58,6.57-3,13-4.42,19.17-1.77,7.76-3.44,15.06-5.17,21.58-3.43,13-7.07,22.93-12,27.14l-1.05.49-5.87,1.47c14.8-11.81,15.92-88.72,42.33-140.7,21-41.27,59.85-45.1,90.56-34.93,2.24,2.05,4.28,4,6.08,5.87A3.4,3.4,0,0,1,723.81,331.44Z" transform="translate(-120.2 -127.68)"/><path class="cls-7" d="M392.41,471.9c-18.51,37.34-57.71,58.45-57.71,58.45-11.42,1.25-22.18-10.81-33.48-24.9-5.7-7.09-11.72-14.95-18.42-22.42-7.68-8.57-16.25-16.6-26.22-22.29a60.87,60.87,0,0,0-31.87-8.38,68.45,68.45,0,0,0-12.82,1.43A94.27,94.27,0,0,0,182.1,465a76.2,76.2,0,0,0-24.82,23.63,90.11,90.11,0,0,0-10.52,22,117.73,117.73,0,0,0-5.06,24.88c-.43,4.4-.61,8.47-.64,12a3.4,3.4,0,0,1-6.48,1.38c-14.14-30.51-37-104.42,47.21-145.67,98.74-48.36,134.54,100.26,182.86,70.82,27.35-16.66,52-29.95-34.82-161.39-43.15-65.29,17.48-192.55,118.93-184.09,64.74,5.39,163.44,58.21,112,179.11S539,472.45,539,472.45s-24.12-3-29.53-30.46c0,0,2.52,24.48,29.53,30.46,49.44,10.93,18.92-106.07,75.8-157.4,48.39-43.67,93.54-8.69,112.58,10.83a3.4,3.4,0,0,1-3.59,5.56c-2.77-1-5.46-1.81-8.09-2.52-10.12-2.76-19.16-3.61-27.29-2.87-18.46,1.65-32.08,11.47-42.5,25.62-6.38,8.68-11.55,19-15.87,30.1-2.89,7.41-5.39,15.14-7.63,23-2,7-3.81,14.11-5.48,21.06-1.58,6.57-3,13-4.42,19.17-1.77,7.76-3.44,15.06-5.17,21.58-4.42,16.77-9.19,28.37-16.61,29.29,0,0-44.78,14.75-71.71-7.35,55.72,41.65,130.22-39.3,180.66,5.27,53.93,47.68,29.83,91.35,14,110.57a3.39,3.39,0,0,1-5.9-3q.65-2.76,1.09-5.43h0a76.24,76.24,0,0,0,1-18.17,56.84,56.84,0,0,0-7-24.17,50.19,50.19,0,0,0-22.21-20.7,52.45,52.45,0,0,0-21.45-5.09,138.53,138.53,0,0,0-17.73.9c-6.62.72-13.52,1.81-20.61,3.09-11,2-22.35,4.36-33.72,6.51-8.19,1.54-16.36,3-24.35,4-6.51.81-12.9,1.37-19.09,1.53a105.49,105.49,0,0,1-21.09-1.39c-14.53-2.58-27.37-8.78-36.29-21.46,0,0-9.44-27.57-9.17-52.55,5.35,115.35,80.87,115.35,107,160,18.85,32.12,0,69.5-11.94,87.89a3.4,3.4,0,0,1-6.23-2c.05-1.64,0-3.3-.06-5a80.73,80.73,0,0,0-4-20.67,114.12,114.12,0,0,0-9-20.43A139.21,139.21,0,0,0,540.24,649a129.53,129.53,0,0,0-27.38-26c-1.28-.89-2.56-1.77-3.89-2.64-7.15-4.85-14.86-9.82-22.59-15-5.52-3.71-11-7.52-16.39-11.48-9.27-6.85-18-14.15-25.18-22.06-9.24-10.14-17.64-23.2-19.83-35.76,0,0,13.43-30.87,16.43-67.81,0,0-1.91,48.8-28.77,91.48q-3.43,5.44-7.41,10.7c-3.72,4.9-7.41,9.79-11,14.71-4.14,5.66-8.13,11.35-11.88,17.09a192.25,192.25,0,0,0-15.73,28.75,115.13,115.13,0,0,0-9.29,35.77,106.05,106.05,0,0,0,2.43,32.82q1,4.32,2.35,8.76a3.4,3.4,0,0,1-5.89,3.12c-20.64-25.67-55.71-84.65-4.6-144.4,27.77-32.47,40.21-37.21,52.71-96.44-4.21,36.85-26.66,67-26.66,67L351.62,567s-9,6.37-22.29,13.73c-6.14,3.4-13.19,7-20.69,10.33a164.84,164.84,0,0,1-24.28,8.61c-3.2.84-6.4,1.52-9.56,2-7,1.12-13.66,2.5-19.91,4.08a181.82,181.82,0,0,0-26.49,8.84,142.58,142.58,0,0,0-25.07,13.63,116.34,116.34,0,0,0-31.06,31,112.57,112.57,0,0,0-15.81,35.42,3.4,3.4,0,0,1-6.68-.6c-2.76-38,4.45-109.92,93.51-129,104.18-22.37,138.94-73.88,147.08-89" transform="translate(-120.2 -127.68)"/></svg>