<svg id="Calque_1" data-name="Calque 1" xmlns="http://www.w3.org/2000/svg" viewBox="0 0 595.28 595.28"><defs><style>.cls-1{fill:#d63f77;}.cls-2{fill:#d5e8d5;}.cls-3{fill:none;stroke:#d5e8d5;stroke-linecap:round;stroke-linejoin:round;stroke-width:11px;}</style></defs><title>Sans titre - 1</title><rect class="cls-1" width="595.28" height="595.28"/><circle class="cls-2" cx="297.56" cy="240.3" r="107.63"/><path class="cls-2" d="M456.31,522.4a281.74,281.74,0,0,1-9.43,72.88H148.39A281.74,281.74,0,0,1,139,522.4c0-118.26,71-214.14,158.68-214.14S456.31,404.14,456.31,522.4Z"/><line class="cls-3" x1="434.85" y1="308.26" x2="503.21" y2="333.75"/><line class="cls-3" x1="446.69" y1="252.16" x2="519.65" y2="252.72"/><line class="cls-3" x1="438.03" y1="196.61" x2="506.78" y2="172.19"/><line class="cls-3" x1="406.77" y1="153.91" x2="463.03" y2="107.44"/><line class="cls-3" x1="351.85" y1="112.16" x2="388.82" y2="49.26"/><line class="cls-3" x1="297.64" y1="107.44" x2="297.64" y2="33.22"/><line class="cls-3" x1="160.27" y1="308.26" x2="91.9" y2="333.75"/><line class="cls-3" x1="148.43" y1="252.16" x2="75.47" y2="252.72"/><line class="cls-3" x1="157.09" y1="196.61" x2="88.33" y2="172.19"/><line class="cls-3" x1="188.34" y1="153.91" x2="132.09" y2="107.44"/><line class="cls-3" x1="243.27" y1="112.16" x2="206.29" y2="49.26"/></svg>