<svg xmlns="http://www.w3.org/2000/svg" viewBox="0 0 496.52 710.08"><defs><style>.cls-1{fill:#9874ad;}</style></defs><title>logo ako</title><g id="Calque_1" data-name="Calque 1"><path class="cls-1" d="M673,740.18,544.37,96.56a32.3,32.3,0,0,0-31.67-26H336.43a32.3,32.3,0,0,0-31.69,26l-127,643.63A33.85,33.85,0,0,0,211,780.67h93.09a33.86,33.86,0,0,0,33.43-28.55L353.59,651a26.41,26.41,0,0,1,26.09-22.27h84.55a26.4,26.4,0,0,1,26.07,22.14l16.63,101.46a33.86,33.86,0,0,0,33.41,28.39h99.43A33.86,33.86,0,0,0,673,740.18Zm-121.3-283.9a1.55,1.55,0,0,1-2.7-1.37c.19-.85.36-1.68.49-2.49h0c.21-1.27.35-2.5.44-3.7h-.09a2.89,2.89,0,0,1,0-.29c-1.66-.42-3.66-1.47-3.8-4.15-.17-3.13,1.6-3.91,3.36-3.93a25.15,25.15,0,0,0-2.69-7.36c-2.86,1.85-7.09,3.42-10.63,0-4-3.93-1.57-7.56.44-9.49a24.17,24.17,0,0,0-9.84-2.33,62.25,62.25,0,0,0-8.13.41c1.62,3.09,1.37,7.4-4.49,7.68-4.68.22-5.18-3.62-5-6.26-5,.9-10.25,2-15.47,3,2.5,3.47,2.92,6.05-5,8.32-6.5,1.86-6.79-2.89-6.18-6.51-3,.37-5.91.63-8.75.7,1.92,3.93-1.92,6.35-7.34,5.48-3.93-.63-3.32-3.84-2.34-6.12-6.64-1.18-12.52-4-16.61-9.8,10.12,29.44,35.05,32.5,44.85,49.22,8.65,14.74,0,31.88-5.47,40.32a1.56,1.56,0,0,1-2.86-.93q0-1.12,0-2.28a29.55,29.55,0,0,0-.33-3.08c-2.05.52-4.91.18-5.7-3.66s1-5.65,2.86-6.35a55.18,55.18,0,0,0-2.77-5.76c-1.9,1.1-4.63,1.65-7.35-1.31-3.15-3.42-.72-6,1.48-7.45a59.08,59.08,0,0,0-12.56-11.95c-.58-.41-1.17-.81-1.78-1.21-1.36,2.94-4.15,6.52-9,3.08-4.72-3.33-3.16-7.39-1.33-10-2.53-1.7-5.06-3.45-7.52-5.27-2.79,2.43-6.84,4.3-10.57-.25s-2.59-7.77-1-9.86c-4.23-4.65-8.08-10.64-9.09-16.39a78.67,78.67,0,0,1-5.66,10.84c1.56,2.09,2.56,5.22-.35,9.08-3.09,4.12-6.09,3.7-8.1,2.58-1.89,2.59-3.73,5.2-5.45,7.84,2.38,1.83,4.74,5.08,2,9.93-2.82,5-6.66,4.45-9.22,3.25a56.56,56.56,0,0,0-3.34,10.3c3.14,1.13,7.12,3.17,7.17,6.94.1,6.75-4.88,6.65-8.13,6.65a52.45,52.45,0,0,0,1.15,7.57q.45,2,1.08,4a1.56,1.56,0,0,1-2.7,1.43c-9.47-11.77-25.56-38.83-2.11-66.23,0,0-4.14,2.92-10.23,6.3,1.44,3.26.54,5.51-3.61,8.23-3.3,2.19-5.13-1.37-5.87-3.5a75.28,75.28,0,0,1-11.14,3.95c1.7,3,3.23,7.9-4.18,8.74-6.35.71-8.58-2.87-9.34-5.93A83.13,83.13,0,0,0,329.09,461c1.69,1.6,3.39,4.15.59,6.55-3.92,3.37-8.41,4.29-12.09-.3a53.76,53.76,0,0,0-12.93,12.37c2.61,1.81,5.69,5,3.3,8.77-2.8,4.46-6.71,4.44-9.42,2-.3.7-.57,1.4-.83,2.08-.67,1.84-1.2,3.6-1.62,5.24a1.56,1.56,0,0,1-3.06-.28c-1.26-17.45,2-50.42,42.89-59.19,18.24-3.91,31.82-9.78,41.88-15.91-5.22.53-10.14-5-15.31-11.43-2.4,1.9-6,3.53-9.56.28-4.54-4.19-.91-8.65,1.11-10.56a49.58,49.58,0,0,0-12-10.23c-2,5.08-5.69,5.49-11.83,4.27-4.63-.92-3.82-5.32-2.79-8.11a31.71,31.71,0,0,0-5.88.66,43.34,43.34,0,0,0-13.67,5.11c2.59,1.71,5.45,4.68,2.43,8.4-3.88,4.78-10.61,5.74-13.81,2.44a40.17,40.17,0,0,0-3.92,7.58,5,5,0,0,1,3.72,5.81c-.46,4.18-4,5.17-6.6,5.31-.14,1-.26,1.91-.35,2.82-.19,2-.28,3.88-.29,5.52a1.56,1.56,0,0,1-3,.63c-6.49-14-17-47.89,21.65-66.81,45.29-22.18,61.71,46,83.88,32.48,12.54-7.64,23.87-13.73-16-74-19.79-29.95,8-88.32,54.55-84.44,29.7,2.48,75,26.7,51.35,82.15s-9.94,75.57-9.94,75.57c22.68,5,8.68-48.65,34.76-72.19,22.2-20,42.91-4,51.64,5a1.56,1.56,0,0,1-1.64,2.55c-1.27-.45-2.51-.83-3.71-1.16a41,41,0,0,0-6.17-1.2c-.09,2.57-.89,5.95-5.94,5.46-4.47-.44-4.85-2.65-4.61-4.84-6.38,1.65-11.35,5.65-15.29,11,4.11.39,9.2,2,5.84,7.72-3.66,6.24-9.75,6.51-13.12,6.08-1.33,3.4-2.48,6.95-3.51,10.53,3.07-.56,7.11-.46,5.56,4.55s-5.44,5.43-8.07,5.11c-.72,3-1.39,6-2,8.79,2.88.65,7.17,2.18,4.82,5.29-2.7,3.57-4,6.17-7.19,4.61C501,400.22,499,405.31,496,406.34c17.56-4.61,35.39-13,49.26-.78C570,427.43,559,447.46,551.67,456.28Z" transform="translate(-177.11 -70.59)"/></g></svg>